<svg xmlns="http://www.w3.org/2000/svg" width="96" height="96" viewBox="0 0 96 96" role="img" aria-labelledby="title desc">
  <title id="title">Axis IB Logo Mark</title>
  <desc id="desc">An open book with a math curve, representing Axis IB tutoring.</desc>
  <rect width="96" height="96" rx="18" fill="#f7f4ee"/>
  <rect x="12" y="12" width="72" height="72" rx="16" fill="#ffffff" stroke="#d8ccbc" stroke-width="3"/>
  <path d="M26 33.2c10.4-1.8 18 .6 22 6.8v28.2c-4.2-5.8-11.6-8.4-22-7.6V33.2Z" fill="#eaf4f6" stroke="#0f5b78" stroke-width="4" stroke-linejoin="round"/>
  <path d="M70 33.2c-10.4-1.8-18 .6-22 6.8v28.2c4.2-5.8 11.6-8.4 22-7.6V33.2Z" fill="#fff7df" stroke="#0f5b78" stroke-width="4" stroke-linejoin="round"/>
  <path d="M48 39.4v28.4" stroke="#0f5b78" stroke-width="4" stroke-linecap="round"/>
  <path d="M32.4 57.6c6.4-11.8 12.6-13 18.6-4 4.2 6 9 4.8 14.6-3.4" fill="none" stroke="#f5b84b" stroke-width="5" stroke-linecap="round"/>
  <path d="M34 69h28" stroke="#172033" stroke-width="4" stroke-linecap="round" opacity=".86"/>
  <circle cx="66" cy="50" r="3.2" fill="#172033"/>
</svg>
