<svg xmlns="http://www.w3.org/2000/svg" width="48" height="48" viewBox="0 0 48 48">
  <rect width="48" height="48" rx="9" fill="#f7f4ee"/>
  <rect x="5.5" y="5.5" width="37" height="37" rx="9" fill="#ffffff" stroke="#d8ccbc" stroke-width="1.5"/>
  <path d="M13 16.6c5.2-.9 9 .3 11 3.4v14.1c-2.1-2.9-5.8-4.2-11-3.8V16.6Z" fill="#eaf4f6" stroke="#0f5b78" stroke-width="2" stroke-linejoin="round"/>
  <path d="M35 16.6c-5.2-.9-9 .3-11 3.4v14.1c2.1-2.9 5.8-4.2 11-3.8V16.6Z" fill="#fff7df" stroke="#0f5b78" stroke-width="2" stroke-linejoin="round"/>
  <path d="M24 19.7v14.2" stroke="#0f5b78" stroke-width="2" stroke-linecap="round"/>
  <path d="M16.2 28.8c3.2-5.9 6.3-6.5 9.3-2 2.1 3 4.5 2.4 7.3-1.7" fill="none" stroke="#f5b84b" stroke-width="2.5" stroke-linecap="round"/>
  <path d="M17 34.5h14" stroke="#172033" stroke-width="2" stroke-linecap="round" opacity=".86"/>
  <circle cx="33" cy="25" r="1.6" fill="#172033"/>
</svg>
